<svg xmlns="http://www.w3.org/2000/svg" viewBox="0 0 720 420" role="img" aria-label="Ilustración de limpieza a fondo">
  <defs>
    <linearGradient id="g" x1="0" x2="1" y1="0" y2="1">
      <stop offset="0" stop-color="#1f6feb" stop-opacity=".22"/>
      <stop offset="1" stop-color="#22c55e" stop-opacity=".22"/>
    </linearGradient>
    <linearGradient id="b" x1="0" x2="1">
      <stop offset="0" stop-color="#1f6feb"/>
      <stop offset="1" stop-color="#22c55e"/>
    </linearGradient>
  </defs>
  <rect width="720" height="420" rx="28" fill="url(#g)"/>
  <g opacity=".95">
    <rect x="72" y="84" width="260" height="250" rx="22" fill="#ffffff"/>
    <rect x="102" y="120" width="200" height="14" rx="7" fill="#e5e7eb"/>
    <rect x="102" y="148" width="160" height="14" rx="7" fill="#e5e7eb"/>
    <rect x="102" y="176" width="190" height="14" rx="7" fill="#e5e7eb"/>
    <rect x="102" y="212" width="210" height="60" rx="14" fill="#f3f4f6"/>
    <path d="M128 242h54" stroke="url(#b)" stroke-width="8" stroke-linecap="round"/>
    <path d="M128 262h124" stroke="#cbd5e1" stroke-width="8" stroke-linecap="round"/>
    <circle cx="300" cy="244" r="12" fill="#22c55e"/>
  </g>
  <g>
    <rect x="372" y="100" width="276" height="232" rx="24" fill="#ffffff"/>
    <path d="M420 160c22-44 74-64 120-46 44 18 66 68 50 112-16 44-66 68-112 54" fill="none" stroke="#1f6feb" stroke-width="14" stroke-linecap="round"/>
    <path d="M540 134l40 10-24 34" fill="none" stroke="#22c55e" stroke-width="14" stroke-linecap="round" stroke-linejoin="round"/>
    <circle cx="470" cy="260" r="10" fill="#22c55e"/>
    <circle cx="520" cy="280" r="7" fill="#1f6feb"/>
    <circle cx="580" cy="250" r="9" fill="#22c55e"/>
    <rect x="420" y="310" width="200" height="16" rx="8" fill="#e5e7eb"/>
  </g>
</svg>